<svg width="32" height="32" viewBox="0 0 32 32" fill="none" xmlns="http://www.w3.org/2000/svg">
<path d="M2.63078 14.193C10.9538 10.5241 16.5026 8.10512 19.2769 6.93648C27.2075 3.59939 28.8533 3.01981 29.9283 3.00017C30.1647 2.99633 30.691 3.05547 31.0345 3.33645C31.3199 3.57343 31.4002 3.89391 31.4404 4.11893C31.476 4.34372 31.5251 4.85604 31.485 5.25597C31.0568 9.82399 29.1968 20.9091 28.2512 26.0256C27.8542 28.1904 27.0647 28.9162 26.302 28.9871C24.6427 29.1415 23.3849 27.8785 21.7792 26.8137C19.268 25.1467 17.8496 24.1094 15.4098 22.4831C12.5908 20.6035 14.4196 19.5703 16.0253 17.8821C16.4446 17.4402 23.7507 10.7168 23.8889 10.107C23.9068 10.0307 23.9246 9.74635 23.7551 9.59649C23.5901 9.44618 23.3448 9.49764 23.1664 9.53827C22.9121 9.59604 18.9022 12.2809 11.1233 17.5923C9.98594 18.3841 8.9556 18.77 8.02784 18.7497C7.01087 18.7276 5.0483 18.1665 3.58976 17.6871C1.80561 17.099 0.382747 16.788 0.507638 15.7891C0.570083 15.2691 1.27928 14.7369 2.63078 14.193Z" fill="#A2DD5C"/>
</svg>
