<svg width="19" height="13" viewBox="0 0 19 13" fill="none" xmlns="http://www.w3.org/2000/svg">
<path d="M11.5039 11.3043C11.9536 11.3043 12.3182 11.6839 12.3182 12.1522C12.3182 12.6204 11.9536 13 11.5039 13H7.49609C7.04638 13 6.68181 12.6204 6.68181 12.1522C6.68181 11.6839 7.04638 11.3043 7.49609 11.3043H11.5039ZM15.5128 5.65217C15.9625 5.65217 16.3271 6.03176 16.3271 6.5C16.3271 6.96824 15.9625 7.34783 15.5128 7.34783H3.48722C3.0375 7.34783 2.67294 6.96824 2.67294 6.5C2.67294 6.03176 3.0375 5.65217 3.48722 5.65217H15.5128ZM18.1857 0C18.6354 0 19 0.379585 19 0.847826C19 1.31607 18.6354 1.69565 18.1857 1.69565H0.814286C0.364568 1.69565 0 1.31607 0 0.847826C0 0.379585 0.364568 0 0.814286 0H18.1857Z" fill="#00B8F4"/>
</svg>
