<svg width="26" height="16" viewBox="0 0 26 16" fill="none" xmlns="http://www.w3.org/2000/svg">
  <path d="M21.2542 9.17726C21.0374 8.89186 20.9458 8.66444 20.9791 8.49498C21.0124 8.32553 21.1041 8.11594 21.2542 7.86622C21.2542 7.86622 21.4292 7.58974 21.7793 7.03679C22.146 6.50167 22.5544 5.86399 23.0045 5.12375C23.4546 4.3835 23.8797 3.62988 24.2797 2.86288C24.6798 2.11371 24.9299 1.52508 25.0299 1.09699C25.1132 0.77592 25.0966 0.51282 24.9799 0.307692C24.8632 0.102563 24.5965 -1.19209e-07 24.1797 -1.19209e-07H21.3792C21.0291 -1.19209e-07 20.7624 0.084727 20.579 0.254181C20.3957 0.423635 20.254 0.624303 20.1539 0.856187C20.1539 0.856187 20.0706 1.0524 19.9039 1.44482C19.7372 1.85507 19.4996 2.36343 19.1912 2.9699C18.8829 3.57637 18.5203 4.22742 18.1035 4.92308C17.6868 5.61873 17.2284 6.26087 16.7283 6.8495C16.3949 7.20624 16.1365 7.44705 15.9531 7.57191C15.7697 7.69677 15.5864 7.7592 15.403 7.7592C15.3197 7.7592 15.2238 7.69677 15.1155 7.57191C15.0071 7.44705 14.9529 7.233 14.9529 6.92977V1.09699C14.9529 0.722408 14.8987 0.44593 14.7904 0.267558C14.682 0.0891853 14.4778 -1.19209e-07 14.1778 -1.19209e-07H9.77691C9.54353 -1.19209e-07 9.36433 0.0713489 9.23931 0.214047C9.11428 0.356745 9.05177 0.517279 9.05177 0.695651C9.05177 1.03456 9.2268 1.34671 9.57687 1.63211C9.92694 1.9175 10.127 2.55964 10.177 3.55853V7.89298C10.177 8.35674 10.1353 8.65998 10.052 8.80268C9.96861 8.94537 9.83525 9.01672 9.65189 9.01672C9.41851 9.01672 9.11011 8.80268 8.72671 8.37458C8.3433 7.94649 7.93488 7.37124 7.50147 6.64883C7.06805 5.92642 6.63463 5.09253 6.20121 4.14716C5.75112 3.20178 5.35938 2.2029 5.02598 1.1505C4.89262 0.740246 4.73843 0.44593 4.56339 0.267558C4.38836 0.0891853 4.11747 -1.19209e-07 3.75073 -1.19209e-07H0.950186C0.550108 -1.19209e-07 0.291724 0.084727 0.175034 0.254181C0.0583447 0.423635 0 0.624303 0 0.856187C0 1.03456 0.0666797 1.40914 0.200039 1.97993C0.333398 2.53289 0.570945 3.23746 0.912678 4.09365C1.25441 4.94983 1.70867 5.93088 2.27544 7.03679C2.84222 8.1427 3.55903 9.32887 4.42586 10.5953C5.00931 11.4693 5.64277 12.2453 6.32624 12.9231C7.0097 13.6009 7.71817 14.1672 8.45165 14.6221C9.18513 15.0769 9.93527 15.4203 10.7021 15.6522C11.4689 15.8841 12.2274 16 12.9775 16C13.861 16 14.4153 15.8974 14.6404 15.6923C14.8654 15.4872 14.9779 15.2062 14.9779 14.8495C14.9779 13.1728 14.9863 12.1472 15.0029 11.7726C15.0196 11.398 15.253 11.2107 15.7031 11.2107C15.9031 11.2107 16.2115 11.3133 16.6282 11.5184C17.045 11.7235 17.6618 12.2542 18.4786 13.1104C19.4455 14.1093 20.1039 14.8406 20.454 15.3043C20.8041 15.7681 21.2458 16 21.7793 16H24.5798C24.9799 16 25.2674 15.893 25.4425 15.6789C25.6175 15.4649 25.6467 15.1527 25.53 14.7425C25.3966 14.3144 25.1049 13.7882 24.6548 13.1639C24.2214 12.5574 23.7546 11.9688 23.2545 11.398C22.7544 10.8272 22.3044 10.3278 21.9043 9.89967C21.5042 9.47157 21.2875 9.23077 21.2542 9.17726Z" fill="black" />
</svg>