<svg width="24" height="24" viewBox="0 0 24 24" fill="none" xmlns="http://www.w3.org/2000/svg">
  <path fill-rule="evenodd" clip-rule="evenodd" d="M12.2133 0C18.7125 0.000107398 23.9999 5.2483 24 11.6992C24 18.1496 18.7126 23.3977 12.2133 23.3977C10.264 23.3977 8.3378 22.9168 6.63363 22.0063L0.406286 23.9852C0.375274 23.9951 0.343312 24 0.311755 24C0.229391 24 0.148553 23.967 0.0890983 23.9062C0.00694335 23.8224 -0.0212029 23.6995 0.0164421 23.5883L2.04144 17.6156C0.983699 15.8281 0.425036 13.7857 0.425036 11.6992C0.425165 5.24824 5.71343 0 12.2133 0ZM8.88675 6.21172C8.72211 6.21871 7.82777 6.33666 7.43207 6.58594C7.01246 6.85048 6.30238 7.69433 6.30238 9.17734C6.30254 10.5119 7.14969 11.7723 7.51332 12.2516C7.52241 12.2638 7.53867 12.2885 7.56254 12.3234C8.95519 14.3572 10.6917 15.8641 12.4516 16.5672C14.146 17.244 14.9486 17.3227 15.4047 17.3227L15.6664 17.3133C15.7455 17.3079 15.8176 17.3004 15.8852 17.2938L15.9711 17.2859C16.5564 17.234 17.8424 16.5676 18.1352 15.7547C18.3657 15.1143 18.4268 14.4141 18.2735 14.1602C18.1684 13.9875 17.987 13.9007 17.7578 13.7906C17.7066 13.766 15.9613 12.9063 15.6508 12.7945C15.5239 12.7489 15.3876 12.7047 15.243 12.7047C15.0068 12.7048 14.8085 12.8227 14.6539 13.0539C14.4791 13.3137 13.9505 13.9314 13.7868 14.1164C13.7655 14.1407 13.7363 14.1701 13.7188 14.1703C13.7031 14.1703 13.432 14.059 13.35 14.0234C11.4731 13.2081 10.0485 11.247 9.85316 10.9164C9.82704 10.8719 9.82467 10.8501 9.82425 10.8477C9.83111 10.8225 9.89401 10.7592 9.9266 10.7266C10.0219 10.6323 10.1251 10.5077 10.225 10.3875C10.2723 10.3306 10.3199 10.2733 10.3664 10.2195C10.5111 10.0511 10.5753 9.92019 10.65 9.76875L10.6899 9.68984C10.8724 9.32701 10.7161 9.02075 10.6657 8.92188C10.624 8.83844 9.8856 7.05604 9.80707 6.86875C9.6182 6.41677 9.36871 6.20627 9.02191 6.20625C8.98973 6.20625 9.02171 6.20603 8.88675 6.21172Z" fill="#07C347" />
</svg>