<svg width="27" height="27" viewBox="0 0 27 27" fill="none" xmlns="http://www.w3.org/2000/svg">
<path fill-rule="evenodd" clip-rule="evenodd" d="M13.7901 26.923C11.1404 26.923 9.909 26.5345 7.7686 24.9805C6.41474 26.7287 2.1275 28.0949 1.94054 25.7575C1.94054 24.0027 1.55372 22.52 1.11533 20.9012C0.593121 18.9069 0 16.686 0 13.468C0 5.78215 6.27935 0 13.7192 0C21.1654 0 26.9999 6.06705 26.9999 13.5392C27.0249 20.8957 21.1148 26.8837 13.7901 26.923ZM13.8997 6.64333C10.2765 6.45555 7.4527 8.97432 6.82734 12.9241C6.31158 16.1939 7.22705 20.176 8.00714 20.3832C8.38106 20.4739 9.32232 19.7098 9.909 19.1206C10.8791 19.7937 12.0088 20.1979 13.1841 20.2926C16.9383 20.4739 20.1461 17.6034 20.3982 13.837C20.545 10.0627 17.6544 6.86579 13.8997 6.6498L13.8997 6.64333Z" fill="#A2DD5C"/>
</svg>
