<svg width="65" height="26" viewBox="0 0 65 26" fill="none" xmlns="http://www.w3.org/2000/svg">
<path d="M7.40109 26.0001C8.0366 23.6028 8.67009 21.2076 9.31165 18.7903C9.0292 18.9248 8.76491 19.0413 8.49659 19.1437C7.48785 19.5252 6.44683 19.74 5.36344 19.7139C4.22356 19.6858 3.15429 19.4087 2.20406 18.7622C1.10453 18.0153 0.434726 16.9774 0.144208 15.6924C-0.0898198 14.6524 -0.0272777 13.6164 0.2471 12.5925C0.723226 10.8177 1.69565 9.33997 3.03324 8.09518C4.23163 6.97889 5.61159 6.1758 7.19733 5.73811C8.35133 5.42089 9.51945 5.33456 10.6977 5.58553C11.9404 5.85055 12.9855 6.44684 13.7703 7.45673C14.3776 8.23974 14.7003 9.1392 14.8032 10.117C14.9001 11.0325 14.775 11.9239 14.5329 12.8053C14.2061 13.9999 13.8913 15.1985 13.5726 16.3951C12.8846 18.9891 12.2148 21.5891 11.5026 24.177C11.2222 25.195 10.4979 25.7913 9.45086 25.982C9.43875 25.984 9.42867 25.992 9.41656 25.9981C8.74676 26.0001 8.07292 26.0001 7.40109 26.0001ZM3.77366 13.504C3.7777 13.5723 3.7777 13.6807 3.79182 13.7871C3.91892 14.8452 4.46969 15.578 5.4865 15.9414C6.0514 16.1421 6.63647 16.1542 7.2175 16.0317C8.61764 15.7346 9.68085 14.9536 10.4435 13.761C10.8853 13.0683 11.1213 12.3094 11.0729 11.4782C11.0084 10.388 10.3184 9.51464 9.2713 9.20545C8.69632 9.0348 8.11528 9.0348 7.53627 9.16932C6.26122 9.46646 5.2666 10.1812 4.52618 11.2453C4.06216 11.9099 3.79182 12.6467 3.77366 13.504Z" fill="white"/>
<path d="M47.0846 0.00200784C46.7659 1.20262 46.4491 2.40324 46.1304 3.60184C46.1021 3.62393 46.0719 3.61389 46.0416 3.61389C45.4606 3.61389 44.8775 3.61791 44.2965 3.61389C43.887 3.61188 43.5198 3.48941 43.2414 3.17621C42.9025 2.79675 42.8419 2.34501 42.959 1.86918C43.1143 1.24478 43.2878 0.622392 43.4532 0C44.6637 0 45.8741 1.22511e-07 47.0846 0.00200784Z" fill="white"/>
<path d="M65.0001 5.50158C64.9214 5.71039 64.8771 5.92923 64.8206 6.14606C64.6733 6.69016 64.5321 7.23626 64.3888 7.78236C64.3767 7.82854 64.3586 7.85464 64.3021 7.85263C63.5334 7.85062 62.7627 7.85063 61.9941 7.85063C61.982 7.85063 61.9699 7.84661 61.9497 7.8446C62.1615 7.04352 62.3734 6.24846 62.5852 5.44336C63.3902 5.44336 64.1952 5.44336 65.0001 5.44336C65.0001 5.46143 65.0001 5.48151 65.0001 5.50158Z" fill="white"/>
<path d="M20.8761 19.7182C20.1599 19.7142 19.1915 19.5255 18.2978 19.0396C16.8734 18.2667 16.0382 17.066 15.7376 15.49C15.552 14.5162 15.6246 13.5505 15.8809 12.5968C16.3449 10.8702 17.279 9.42263 18.5641 8.19189C19.6939 7.11174 20.9972 6.31467 22.4921 5.83683C23.3596 5.55977 24.2493 5.41521 25.1612 5.44533C26.3435 5.48347 27.445 5.78865 28.4114 6.49135C29.5028 7.28641 30.1383 8.37058 30.3764 9.68765C30.5963 10.9003 30.4369 12.0809 30.0213 13.2313C29.4181 14.9037 28.3912 16.281 27.0355 17.4214C25.8815 18.3911 24.5802 19.0878 23.1135 19.4653C22.4659 19.6339 21.8041 19.7162 20.8761 19.7182ZM19.4094 13.5023C19.4134 13.5706 19.4134 13.679 19.4276 13.7854C19.5547 14.8435 20.1034 15.5783 21.1182 15.9397C21.6831 16.1425 22.2682 16.1545 22.8492 16.0321C24.2534 15.7349 25.3186 14.9519 26.0812 13.7553C26.521 13.0646 26.755 12.3077 26.7066 11.4805C26.642 10.3904 25.9541 9.51699 24.907 9.20579C24.332 9.03514 23.751 9.03514 23.172 9.16966C21.897 9.4668 20.9023 10.1815 20.1599 11.2436C19.6979 11.9082 19.4276 12.645 19.4094 13.5023Z" fill="white"/>
<path d="M43.1767 19.7182C43.1666 19.654 43.213 19.6319 43.2413 19.6038C44.9723 17.9013 46.7033 16.1987 48.4343 14.4982C49.0617 13.8818 49.6871 13.2654 50.3146 12.6511C50.365 12.6009 50.3771 12.5647 50.3428 12.4965C49.213 10.1816 48.0852 7.86464 46.9555 5.54773C46.9413 5.51762 46.9292 5.4875 46.9171 5.4614C46.9333 5.43731 46.9514 5.44333 46.9676 5.44333C47.593 5.44333 48.2184 5.43731 48.8438 5.44534C49.4269 5.45337 49.9716 5.60595 50.4538 5.94526C50.8008 6.1902 51.0691 6.50341 51.2487 6.88688C51.7046 7.86264 52.1888 8.82634 52.6569 9.79607C52.7154 9.91654 52.7739 10.035 52.8505 10.1916C53.0967 9.93461 53.3246 9.68966 53.5607 9.45476C54.3919 8.63159 55.2332 7.81847 56.0583 6.98727C56.7503 6.2926 57.5472 5.78866 58.5055 5.55175C58.79 5.48148 59.0785 5.44132 59.3731 5.44132C59.9783 5.43931 60.5836 5.44132 61.1888 5.44132C61.209 5.44132 61.2271 5.44132 61.2614 5.44132C61.0859 5.618 60.9225 5.78263 60.7571 5.94526C58.5297 8.13368 56.3045 10.3221 54.0772 12.5105C54.0267 12.5607 54.0187 12.5989 54.0509 12.6651C55.1747 14.968 56.2964 17.2748 57.4201 19.5797C57.4403 19.6199 57.4746 19.658 57.4423 19.7142C57.4222 19.7162 57.3979 19.7182 57.3758 19.7182C56.7705 19.7182 56.1653 19.7283 55.56 19.7162C54.7833 19.7002 54.0973 19.4532 53.5546 18.877C53.367 18.6782 53.2278 18.4453 53.1108 18.2004C52.6024 17.1443 52.0899 16.0923 51.5795 15.0382C51.5755 15.0302 51.5674 15.0222 51.5614 15.0121C51.5271 15.0141 51.5129 15.0423 51.4928 15.0623C50.4719 16.0662 49.443 17.062 48.4322 18.0759C47.9743 18.5357 47.484 18.9433 46.901 19.2364C46.2554 19.5596 45.5735 19.7323 44.8472 19.7223C44.2904 19.7102 43.7355 19.7182 43.1767 19.7182Z" fill="white"/>
<path d="M29.6499 19.714C29.7245 19.4309 29.7952 19.1579 29.8678 18.8828C30.0635 18.144 30.2612 17.4052 30.4569 16.6663C30.6546 15.9215 30.8503 15.1746 31.048 14.4297C31.3849 13.1548 31.7239 11.8799 32.0628 10.605C32.2081 10.0569 32.3432 9.50477 32.5026 8.96067C32.7528 8.1094 33.237 7.39666 33.8886 6.79836C34.5826 6.1599 35.3856 5.72222 36.3197 5.53751C36.5053 5.50137 36.6909 5.47727 36.8785 5.46924C38.1374 5.41704 39.3963 5.4592 40.6573 5.44716C40.6633 5.44716 40.6694 5.44917 40.6916 5.45519C40.3728 6.6538 40.0561 7.85241 39.7393 9.04901C39.703 9.06909 39.6647 9.05905 39.6304 9.05905C39.0998 9.05905 38.5672 9.05905 38.0366 9.05905C37.0238 9.06307 36.3096 9.55697 35.8113 10.4022C35.6519 10.6713 35.5974 10.9764 35.5187 11.2736C35.1859 12.5224 34.853 13.7712 34.5221 15.02C34.167 16.3631 33.812 17.7063 33.4589 19.0495C33.4004 19.2723 33.3399 19.4932 33.2793 19.716C32.0709 19.714 30.8685 19.714 29.6499 19.714Z" fill="white"/>
<path d="M42.0128 5.44446C42.6624 5.44446 43.3019 5.42639 43.9415 5.44848C44.7787 5.47659 45.3356 6.16323 45.2145 6.9884C45.156 7.39597 45.0229 7.78748 44.918 8.183C44.0424 11.4937 43.1627 14.8045 42.2851 18.1152C42.15 18.6212 42.0168 19.1291 41.8816 19.6351C41.8756 19.6612 41.8655 19.6852 41.8594 19.7113C40.6489 19.7113 39.4425 19.7113 38.23 19.7113C39.4909 14.955 40.7498 10.2028 42.0128 5.44446Z" fill="white"/>
</svg>
