<svg aria-hidden="true" xmlns="http://www.w3.org/2000/svg" xmlns:xlink="http://www.w3.org/1999/xlink"><symbol viewBox="0 0 16 16" fill="none" id="icon-arrow-rotate" xmlns="http://www.w3.org/2000/svg">
<path d="M0.707092 15L14.7071 1M14.7071 1H0.707092M14.7071 1V15" stroke="currentColor" stroke-width="2"/>
</symbol><symbol viewBox="0 0 16 16" fill="none" id="icon-close" xmlns="http://www.w3.org/2000/svg">
  <path d="M0.353516 0.353516L7.85352 7.85352M15.3535 15.3535L7.85352 7.85352M7.85352 7.85352L15.3535 0.353516M7.85352 7.85352L0.353516 15.3535" stroke="currentColor"/>
</symbol><symbol viewBox="0 0 11 6" fill="none" id="icon-down" xmlns="http://www.w3.org/2000/svg">
<path d="M-8.95854e-07 0.661389L5.5 6L11 0.661388L10.3186 5.95684e-08L5.5 4.67722L0.681382 9.02082e-07L-8.95854e-07 0.661389Z" fill="currentColor"/>
</symbol><symbol viewBox="0 0 29 35" fill="none" id="icon-download" xmlns="http://www.w3.org/2000/svg">
<path d="M19.9703 0.75H0.75V33.75H27.75V8.33108M19.9703 0.75L27.75 8.33108M19.9703 0.75V8.33108H27.75" stroke="currentColor" stroke-width="1.5"/>
<path d="M6.75 22.2438V24.75H8.5H19H20.75V22.2438M13.751 9.75V19.7021M13.751 19.7021L17.751 15.8994M13.751 19.7021L9.75098 15.8994" stroke="currentColor" stroke-width="1.5" stroke-linecap="square"/>
</symbol><symbol viewBox="0 0 23 26" fill="none" id="icon-download-2" xmlns="http://www.w3.org/2000/svg">
<path d="M1 20.99V25H3.625H19.375H22V20.99M11.5015 1V16.9233M11.5015 16.9233L17.5015 10.8391M11.5015 16.9233L5.50146 10.8391" stroke="currentColor" stroke-width="2" stroke-linecap="square"/>
</symbol><symbol viewBox="0 0 19 13" fill="none" id="icon-filters" xmlns="http://www.w3.org/2000/svg">
<path d="M11.5039 11.3043C11.9536 11.3043 12.3182 11.6839 12.3182 12.1522C12.3182 12.6204 11.9536 13 11.5039 13H7.49609C7.04638 13 6.68181 12.6204 6.68181 12.1522C6.68181 11.6839 7.04638 11.3043 7.49609 11.3043H11.5039ZM15.5128 5.65217C15.9625 5.65217 16.3271 6.03176 16.3271 6.5C16.3271 6.96824 15.9625 7.34783 15.5128 7.34783H3.48722C3.0375 7.34783 2.67294 6.96824 2.67294 6.5C2.67294 6.03176 3.0375 5.65217 3.48722 5.65217H15.5128ZM18.1857 0C18.6354 0 19 0.379585 19 0.847826C19 1.31607 18.6354 1.69565 18.1857 1.69565H0.814286C0.364568 1.69565 0 1.31607 0 0.847826C0 0.379585 0.364568 0 0.814286 0H18.1857Z" fill="currentColor"/>
</symbol><symbol viewBox="0 0 27 27" fill="none" id="icon-max" xmlns="http://www.w3.org/2000/svg">
<path fill-rule="evenodd" clip-rule="evenodd" d="M13.7901 26.923C11.1404 26.923 9.909 26.5345 7.7686 24.9805C6.41474 26.7287 2.1275 28.0949 1.94054 25.7575C1.94054 24.0027 1.55372 22.52 1.11533 20.9012C0.593121 18.9069 0 16.686 0 13.468C0 5.78215 6.27935 0 13.7192 0C21.1654 0 26.9999 6.06705 26.9999 13.5392C27.0249 20.8957 21.1148 26.8837 13.7901 26.923ZM13.8997 6.64333C10.2765 6.45555 7.4527 8.97432 6.82734 12.9241C6.31158 16.1939 7.22705 20.176 8.00714 20.3832C8.38106 20.4739 9.32232 19.7098 9.909 19.1206C10.8791 19.7937 12.0088 20.1979 13.1841 20.2926C16.9383 20.4739 20.1461 17.6034 20.3982 13.837C20.545 10.0627 17.6544 6.86579 13.8997 6.6498L13.8997 6.64333Z" fill="currentColor"/>
</symbol><symbol viewBox="0 0 14 25" fill="none" id="icon-next" xmlns="http://www.w3.org/2000/svg">
<path d="M0.353516 0.353516L12.3535 12.3535L0.353516 24.3535" stroke="currentColor"/>
</symbol><symbol viewBox="0 0 32 32" fill="none" id="icon-play" xmlns="http://www.w3.org/2000/svg">
<path d="M32 16L8 29.8564L8 2.14359L32 16Z" fill="currentColor"/>
</symbol><symbol viewBox="0 0 14 25" fill="none" id="icon-prev" xmlns="http://www.w3.org/2000/svg">
<path d="M12.7072 24.3535L0.707153 12.3535L12.7072 0.353516" stroke="currentColor"/>
</symbol><symbol viewBox="0 0 18 18" fill="none" id="icon-return" xmlns="http://www.w3.org/2000/svg">
<path d="M13 15.4773C15.3912 14.136 17 11.629 17 8.75758C17 4.47319 13.4183 1 9 1C4.58172 1 1 4.47319 1 8.75758C1 10.3756 1.51085 11.878 2.38468 13.1212M12 13.1212L12 17L16 17" stroke="currentColor" stroke-width="2" stroke-linecap="square"/>
</symbol><symbol viewBox="0 0 23 23" fill="none" id="icon-search" xmlns="http://www.w3.org/2000/svg">
<path d="M16.8653 17L21 21M19.6667 10.3333C19.6667 15.488 15.488 19.6667 10.3333 19.6667C5.17868 19.6667 1 15.488 1 10.3333C1 5.17868 5.17868 1 10.3333 1C15.488 1 19.6667 5.17868 19.6667 10.3333Z" stroke="currentColor" stroke-width="2" stroke-linecap="square"/>
</symbol><symbol viewBox="0 0 32 32" fill="none" id="icon-tg" xmlns="http://www.w3.org/2000/svg">
<path d="M2.63078 14.193C10.9538 10.5241 16.5026 8.10512 19.2769 6.93648C27.2075 3.59939 28.8533 3.01981 29.9283 3.00017C30.1647 2.99633 30.691 3.05547 31.0345 3.33645C31.3199 3.57343 31.4002 3.89391 31.4404 4.11893C31.476 4.34372 31.5251 4.85604 31.485 5.25597C31.0568 9.82399 29.1968 20.9091 28.2512 26.0256C27.8542 28.1904 27.0647 28.9162 26.302 28.9871C24.6427 29.1415 23.3849 27.8785 21.7792 26.8137C19.268 25.1467 17.8496 24.1094 15.4098 22.4831C12.5908 20.6035 14.4196 19.5703 16.0253 17.8821C16.4446 17.4402 23.7507 10.7168 23.8889 10.107C23.9068 10.0307 23.9246 9.74635 23.7551 9.59649C23.5901 9.44618 23.3448 9.49764 23.1664 9.53827C22.9121 9.59604 18.9022 12.2809 11.1233 17.5923C9.98594 18.3841 8.9556 18.77 8.02784 18.7497C7.01087 18.7276 5.0483 18.1665 3.58976 17.6871C1.80561 17.099 0.382747 16.788 0.507638 15.7891C0.570083 15.2691 1.27928 14.7369 2.63078 14.193Z" fill="currentColor"/>
</symbol></svg>