<svg aria-hidden="true" xmlns="http://www.w3.org/2000/svg" xmlns:xlink="http://www.w3.org/1999/xlink"><symbol viewBox="0 0 16 16" fill="none" id="icon-arrow-rotate" xmlns="http://www.w3.org/2000/svg">
<path d="M0.707092 15L14.7071 1M14.7071 1H0.707092M14.7071 1V15" stroke="currentColor" stroke-width="2"/>
</symbol><symbol viewBox="0 0 256 256" id="icon-close" xmlns="http://www.w3.org/2000/svg"><rect width="256" height="256" fill="none"/><line x1="200" y1="56" x2="56" y2="200" stroke="currentColor" stroke-linecap="round" stroke-linejoin="round" stroke-width="16"/><line x1="200" y1="200" x2="56" y2="56" stroke="currentColor" stroke-linecap="round" stroke-linejoin="round" stroke-width="16"/></symbol><symbol viewBox="0 0 11 6" fill="none" id="icon-down" xmlns="http://www.w3.org/2000/svg">
<path d="M-8.95854e-07 0.661389L5.5 6L11 0.661388L10.3186 5.95684e-08L5.5 4.67722L0.681382 9.02082e-07L-8.95854e-07 0.661389Z" fill="currentColor"/>
</symbol><symbol viewBox="0 0 27 27" fill="none" id="icon-max" xmlns="http://www.w3.org/2000/svg">
<path fill-rule="evenodd" clip-rule="evenodd" d="M13.7901 26.923C11.1404 26.923 9.909 26.5345 7.7686 24.9805C6.41474 26.7287 2.1275 28.0949 1.94054 25.7575C1.94054 24.0027 1.55372 22.52 1.11533 20.9012C0.593121 18.9069 0 16.686 0 13.468C0 5.78215 6.27935 0 13.7192 0C21.1654 0 26.9999 6.06705 26.9999 13.5392C27.0249 20.8957 21.1148 26.8837 13.7901 26.923ZM13.8997 6.64333C10.2765 6.45555 7.4527 8.97432 6.82734 12.9241C6.31158 16.1939 7.22705 20.176 8.00714 20.3832C8.38106 20.4739 9.32232 19.7098 9.909 19.1206C10.8791 19.7937 12.0088 20.1979 13.1841 20.2926C16.9383 20.4739 20.1461 17.6034 20.3982 13.837C20.545 10.0627 17.6544 6.86579 13.8997 6.6498L13.8997 6.64333Z" fill="currentColor"/>
</symbol><symbol viewBox="0 0 14 25" fill="none" id="icon-next" xmlns="http://www.w3.org/2000/svg">
<path d="M0.353516 0.353516L12.3535 12.3535L0.353516 24.3535" stroke="currentColor"/>
</symbol><symbol viewBox="0 0 14 25" fill="none" id="icon-prev" xmlns="http://www.w3.org/2000/svg">
<path d="M12.7072 24.3535L0.707153 12.3535L12.7072 0.353516" stroke="currentColor"/>
</symbol><symbol viewBox="0 0 32 32" fill="none" id="icon-tg" xmlns="http://www.w3.org/2000/svg">
<path d="M2.63078 14.193C10.9538 10.5241 16.5026 8.10512 19.2769 6.93648C27.2075 3.59939 28.8533 3.01981 29.9283 3.00017C30.1647 2.99633 30.691 3.05547 31.0345 3.33645C31.3199 3.57343 31.4002 3.89391 31.4404 4.11893C31.476 4.34372 31.5251 4.85604 31.485 5.25597C31.0568 9.82399 29.1968 20.9091 28.2512 26.0256C27.8542 28.1904 27.0647 28.9162 26.302 28.9871C24.6427 29.1415 23.3849 27.8785 21.7792 26.8137C19.268 25.1467 17.8496 24.1094 15.4098 22.4831C12.5908 20.6035 14.4196 19.5703 16.0253 17.8821C16.4446 17.4402 23.7507 10.7168 23.8889 10.107C23.9068 10.0307 23.9246 9.74635 23.7551 9.59649C23.5901 9.44618 23.3448 9.49764 23.1664 9.53827C22.9121 9.59604 18.9022 12.2809 11.1233 17.5923C9.98594 18.3841 8.9556 18.77 8.02784 18.7497C7.01087 18.7276 5.0483 18.1665 3.58976 17.6871C1.80561 17.099 0.382747 16.788 0.507638 15.7891C0.570083 15.2691 1.27928 14.7369 2.63078 14.193Z" fill="currentColor"/>
</symbol></svg>