<svg width="34" height="34" viewBox="0 0 34 34" fill="none" xmlns="http://www.w3.org/2000/svg">
<path d="M4.47136 24.4987C3.83538 23.4023 3.34101 22.2303 3 21.0103C3.74216 20.634 4.36544 20.0604 4.80088 19.3529C5.23633 18.6455 5.46696 17.8317 5.46727 17.0017C5.46759 16.1716 5.23756 15.3577 4.80265 14.6499C4.36774 13.9421 3.74489 13.3681 3.00301 12.9912C3.68308 10.5399 4.97796 8.30147 6.76567 6.48687C7.46388 6.93937 8.27407 7.19048 9.10658 7.21241C9.93908 7.23433 10.7614 7.02622 11.4826 6.61109C12.2039 6.19597 12.7958 5.59002 13.1929 4.86032C13.5901 4.13061 13.7769 3.3056 13.7328 2.47658C16.2033 1.84013 18.7957 1.84116 21.2657 2.47958C21.222 3.30858 21.4092 4.13347 21.8066 4.86297C22.2041 5.59247 22.7962 6.19813 23.5176 6.61294C24.2389 7.02774 25.0613 7.23552 25.8938 7.21327C26.7263 7.19102 27.5363 6.93961 28.2343 6.48687C29.1054 7.37171 29.8787 8.37803 30.5286 9.50133C31.1801 10.6246 31.6675 11.7959 32 12.9897C31.2578 13.366 30.6346 13.9396 30.1991 14.6471C29.7637 15.3545 29.533 16.1683 29.5327 16.9983C29.5324 17.8284 29.7624 18.6423 30.1974 19.3501C30.6323 20.0579 31.2551 20.632 31.997 21.0088C31.3169 23.4601 30.022 25.6985 28.2343 27.5131C27.5361 27.0606 26.7259 26.8095 25.8934 26.7876C25.0609 26.7657 24.2386 26.9738 23.5173 27.3889C22.7961 27.804 22.2042 28.41 21.8071 29.1397C21.4099 29.8694 21.2231 30.6944 21.2672 31.5234C18.7967 32.1599 16.2043 32.1588 13.7343 31.5204C13.778 30.6914 13.5908 29.8665 13.1934 29.137C12.7959 28.4075 12.2038 27.8019 11.4824 27.3871C10.7611 26.9723 9.93866 26.7645 9.1062 26.7867C8.27374 26.809 7.46368 27.0604 6.76567 27.5131C5.87652 26.6087 5.10564 25.5959 4.47136 24.4987ZM12.9866 24.7926C14.5898 25.7144 15.7952 27.1937 16.3717 28.9469C17.1224 29.0174 17.8761 29.0189 18.6268 28.9484C19.2037 27.195 20.4096 25.7156 22.0134 24.7941C23.616 23.8698 25.5045 23.5681 27.3166 23.9468C27.7529 23.3349 28.129 22.6825 28.4419 22.0001C27.2074 20.6255 26.5254 18.845 26.5268 17C26.5268 15.1103 27.2339 13.3451 28.4419 11.9999C28.1268 11.3177 27.7491 10.6661 27.3136 10.0532C25.5027 10.4316 23.6153 10.1304 22.0134 9.20738C20.4102 8.28561 19.2048 6.80628 18.6283 5.05312C17.8776 4.98263 17.1239 4.98113 16.3732 5.05162C15.7963 6.80503 14.5904 8.28439 12.9866 9.20588C11.384 10.1302 9.49548 10.4319 7.68339 10.0532C7.24795 10.6656 6.87118 11.3173 6.55805 11.9999C7.79257 13.3745 8.47456 15.155 8.47323 17C8.47323 18.8897 7.76613 20.6549 6.55805 22.0001C6.87319 22.6823 7.25092 23.3339 7.6864 23.9468C9.49734 23.5684 11.3847 23.8696 12.9866 24.7926ZM17.5 21.4992C16.303 21.4992 15.155 21.0252 14.3086 20.1814C13.4621 19.3377 12.9866 18.1933 12.9866 17C12.9866 15.8067 13.4621 14.6623 14.3086 13.8186C15.155 12.9748 16.303 12.5008 17.5 12.5008C18.697 12.5008 19.845 12.9748 20.6914 13.8186C21.5379 14.6623 22.0134 15.8067 22.0134 17C22.0134 18.1933 21.5379 19.3377 20.6914 20.1814C19.845 21.0252 18.697 21.4992 17.5 21.4992ZM17.5 18.4997C17.899 18.4997 18.2817 18.3417 18.5638 18.0605C18.846 17.7792 19.0045 17.3978 19.0045 17C19.0045 16.6022 18.846 16.2208 18.5638 15.9395C18.2817 15.6583 17.899 15.5003 17.5 15.5003C17.101 15.5003 16.7183 15.6583 16.4362 15.9395C16.154 16.2208 15.9955 16.6022 15.9955 17C15.9955 17.3978 16.154 17.7792 16.4362 18.0605C16.7183 18.3417 17.101 18.4997 17.5 18.4997Z" fill="#A2DD5C"/>
</svg>
