<svg aria-hidden="true" xmlns="http://www.w3.org/2000/svg" xmlns:xlink="http://www.w3.org/1999/xlink"><symbol viewBox="0 0 16 16" fill="none" id="icon-arrow-rotate" xmlns="http://www.w3.org/2000/svg">
<path d="M0.707092 15L14.7071 1M14.7071 1H0.707092M14.7071 1V15" stroke="currentColor" stroke-width="2"/>
</symbol><symbol viewBox="0 0 16 16" fill="none" id="icon-close" xmlns="http://www.w3.org/2000/svg">
  <path d="M0.353516 0.353516L7.85352 7.85352M15.3535 15.3535L7.85352 7.85352M7.85352 7.85352L15.3535 0.353516M7.85352 7.85352L0.353516 15.3535" stroke="currentColor"/>
</symbol><symbol viewBox="0 0 17 20" fill="none" id="icon-copy" xmlns="http://www.w3.org/2000/svg">
<path d="M16 11.1251L16 6.00006C16 3.23861 13.7614 1.00003 10.9999 1.00006L5.875 1.00012M10 19.0001L3.25 19.0001C2.00736 19.0001 1 17.9928 1 16.7501L1 7.00012C1 5.75747 2.00736 4.75011 3.25 4.75011L10 4.75011C11.2426 4.75011 12.25 5.75747 12.25 7.00011L12.25 16.7501C12.25 17.9928 11.2426 19.0001 10 19.0001Z" stroke="currentColor" stroke-width="2" stroke-linecap="square"/>
</symbol><symbol viewBox="0 0 11 6" fill="none" id="icon-down" xmlns="http://www.w3.org/2000/svg">
<path d="M-8.95854e-07 0.661389L5.5 6L11 0.661388L10.3186 5.95684e-08L5.5 4.67722L0.681382 9.02082e-07L-8.95854e-07 0.661389Z" fill="currentColor"/>
</symbol><symbol viewBox="0 0 29 35" fill="none" id="icon-download" xmlns="http://www.w3.org/2000/svg">
<path d="M19.9703 0.75H0.75V33.75H27.75V8.33108M19.9703 0.75L27.75 8.33108M19.9703 0.75V8.33108H27.75" stroke="currentColor" stroke-width="1.5"/>
<path d="M6.75 22.2438V24.75H8.5H19H20.75V22.2438M13.751 9.75V19.7021M13.751 19.7021L17.751 15.8994M13.751 19.7021L9.75098 15.8994" stroke="currentColor" stroke-width="1.5" stroke-linecap="square"/>
</symbol><symbol viewBox="0 0 23 26" fill="none" id="icon-download-2" xmlns="http://www.w3.org/2000/svg">
<path d="M1 20.99V25H3.625H19.375H22V20.99M11.5015 1V16.9233M11.5015 16.9233L17.5015 10.8391M11.5015 16.9233L5.50146 10.8391" stroke="currentColor" stroke-width="2" stroke-linecap="square"/>
</symbol><symbol viewBox="0 0 19 13" fill="none" id="icon-filters" xmlns="http://www.w3.org/2000/svg">
<path d="M11.5039 11.3043C11.9536 11.3043 12.3182 11.6839 12.3182 12.1522C12.3182 12.6204 11.9536 13 11.5039 13H7.49609C7.04638 13 6.68181 12.6204 6.68181 12.1522C6.68181 11.6839 7.04638 11.3043 7.49609 11.3043H11.5039ZM15.5128 5.65217C15.9625 5.65217 16.3271 6.03176 16.3271 6.5C16.3271 6.96824 15.9625 7.34783 15.5128 7.34783H3.48722C3.0375 7.34783 2.67294 6.96824 2.67294 6.5C2.67294 6.03176 3.0375 5.65217 3.48722 5.65217H15.5128ZM18.1857 0C18.6354 0 19 0.379585 19 0.847826C19 1.31607 18.6354 1.69565 18.1857 1.69565H0.814286C0.364568 1.69565 0 1.31607 0 0.847826C0 0.379585 0.364568 0 0.814286 0H18.1857Z" fill="currentColor"/>
</symbol><symbol viewBox="0 0 27 27" fill="none" id="icon-max" xmlns="http://www.w3.org/2000/svg">
<path fill-rule="evenodd" clip-rule="evenodd" d="M13.7901 26.923C11.1404 26.923 9.909 26.5345 7.7686 24.9805C6.41474 26.7287 2.1275 28.0949 1.94054 25.7575C1.94054 24.0027 1.55372 22.52 1.11533 20.9012C0.593121 18.9069 0 16.686 0 13.468C0 5.78215 6.27935 0 13.7192 0C21.1654 0 26.9999 6.06705 26.9999 13.5392C27.0249 20.8957 21.1148 26.8837 13.7901 26.923ZM13.8997 6.64333C10.2765 6.45555 7.4527 8.97432 6.82734 12.9241C6.31158 16.1939 7.22705 20.176 8.00714 20.3832C8.38106 20.4739 9.32232 19.7098 9.909 19.1206C10.8791 19.7937 12.0088 20.1979 13.1841 20.2926C16.9383 20.4739 20.1461 17.6034 20.3982 13.837C20.545 10.0627 17.6544 6.86579 13.8997 6.6498L13.8997 6.64333Z" fill="currentColor"/>
</symbol><symbol viewBox="0 0 14 25" fill="none" id="icon-next" xmlns="http://www.w3.org/2000/svg">
<path d="M0.353516 0.353516L12.3535 12.3535L0.353516 24.3535" stroke="currentColor"/>
</symbol><symbol viewBox="0 0 32 32" fill="none" id="icon-play" xmlns="http://www.w3.org/2000/svg">
<path d="M32 16L8 29.8564L8 2.14359L32 16Z" fill="currentColor"/>
</symbol><symbol viewBox="0 0 14 25" fill="none" id="icon-prev" xmlns="http://www.w3.org/2000/svg">
<path d="M12.7072 24.3535L0.707153 12.3535L12.7072 0.353516" stroke="currentColor"/>
</symbol><symbol viewBox="0 0 18 18" fill="none" id="icon-return" xmlns="http://www.w3.org/2000/svg">
<path d="M13 15.4773C15.3912 14.136 17 11.629 17 8.75758C17 4.47319 13.4183 1 9 1C4.58172 1 1 4.47319 1 8.75758C1 10.3756 1.51085 11.878 2.38468 13.1212M12 13.1212L12 17L16 17" stroke="currentColor" stroke-width="2" stroke-linecap="square"/>
</symbol><symbol viewBox="0 0 23 23" fill="none" id="icon-search" xmlns="http://www.w3.org/2000/svg">
<path d="M16.8653 17L21 21M19.6667 10.3333C19.6667 15.488 15.488 19.6667 10.3333 19.6667C5.17868 19.6667 1 15.488 1 10.3333C1 5.17868 5.17868 1 10.3333 1C15.488 1 19.6667 5.17868 19.6667 10.3333Z" stroke="currentColor" stroke-width="2" stroke-linecap="square"/>
</symbol><symbol viewBox="0 0 32 32" fill="none" id="icon-tg" xmlns="http://www.w3.org/2000/svg">
<path d="M2.63078 14.193C10.9538 10.5241 16.5026 8.10512 19.2769 6.93648C27.2075 3.59939 28.8533 3.01981 29.9283 3.00017C30.1647 2.99633 30.691 3.05547 31.0345 3.33645C31.3199 3.57343 31.4002 3.89391 31.4404 4.11893C31.476 4.34372 31.5251 4.85604 31.485 5.25597C31.0568 9.82399 29.1968 20.9091 28.2512 26.0256C27.8542 28.1904 27.0647 28.9162 26.302 28.9871C24.6427 29.1415 23.3849 27.8785 21.7792 26.8137C19.268 25.1467 17.8496 24.1094 15.4098 22.4831C12.5908 20.6035 14.4196 19.5703 16.0253 17.8821C16.4446 17.4402 23.7507 10.7168 23.8889 10.107C23.9068 10.0307 23.9246 9.74635 23.7551 9.59649C23.5901 9.44618 23.3448 9.49764 23.1664 9.53827C22.9121 9.59604 18.9022 12.2809 11.1233 17.5923C9.98594 18.3841 8.9556 18.77 8.02784 18.7497C7.01087 18.7276 5.0483 18.1665 3.58976 17.6871C1.80561 17.099 0.382747 16.788 0.507638 15.7891C0.570083 15.2691 1.27928 14.7369 2.63078 14.193Z" fill="currentColor"/>
</symbol><symbol viewBox="0 0 26 16" fill="none" id="icon-vk" xmlns="http://www.w3.org/2000/svg">
  <path d="M21.2542 9.17726C21.0374 8.89186 20.9458 8.66444 20.9791 8.49498C21.0124 8.32553 21.1041 8.11594 21.2542 7.86622C21.2542 7.86622 21.4292 7.58974 21.7793 7.03679C22.146 6.50167 22.5544 5.86399 23.0045 5.12375C23.4546 4.3835 23.8797 3.62988 24.2797 2.86288C24.6798 2.11371 24.9299 1.52508 25.0299 1.09699C25.1132 0.77592 25.0966 0.51282 24.9799 0.307692C24.8632 0.102563 24.5965 -1.19209e-07 24.1797 -1.19209e-07H21.3792C21.0291 -1.19209e-07 20.7624 0.084727 20.579 0.254181C20.3957 0.423635 20.254 0.624303 20.1539 0.856187C20.1539 0.856187 20.0706 1.0524 19.9039 1.44482C19.7372 1.85507 19.4996 2.36343 19.1912 2.9699C18.8829 3.57637 18.5203 4.22742 18.1035 4.92308C17.6868 5.61873 17.2284 6.26087 16.7283 6.8495C16.3949 7.20624 16.1365 7.44705 15.9531 7.57191C15.7697 7.69677 15.5864 7.7592 15.403 7.7592C15.3197 7.7592 15.2238 7.69677 15.1155 7.57191C15.0071 7.44705 14.9529 7.233 14.9529 6.92977V1.09699C14.9529 0.722408 14.8987 0.44593 14.7904 0.267558C14.682 0.0891853 14.4778 -1.19209e-07 14.1778 -1.19209e-07H9.77691C9.54353 -1.19209e-07 9.36433 0.0713489 9.23931 0.214047C9.11428 0.356745 9.05177 0.517279 9.05177 0.695651C9.05177 1.03456 9.2268 1.34671 9.57687 1.63211C9.92694 1.9175 10.127 2.55964 10.177 3.55853V7.89298C10.177 8.35674 10.1353 8.65998 10.052 8.80268C9.96861 8.94537 9.83525 9.01672 9.65189 9.01672C9.41851 9.01672 9.11011 8.80268 8.72671 8.37458C8.3433 7.94649 7.93488 7.37124 7.50147 6.64883C7.06805 5.92642 6.63463 5.09253 6.20121 4.14716C5.75112 3.20178 5.35938 2.2029 5.02598 1.1505C4.89262 0.740246 4.73843 0.44593 4.56339 0.267558C4.38836 0.0891853 4.11747 -1.19209e-07 3.75073 -1.19209e-07H0.950186C0.550108 -1.19209e-07 0.291724 0.084727 0.175034 0.254181C0.0583447 0.423635 0 0.624303 0 0.856187C0 1.03456 0.0666797 1.40914 0.200039 1.97993C0.333398 2.53289 0.570945 3.23746 0.912678 4.09365C1.25441 4.94983 1.70867 5.93088 2.27544 7.03679C2.84222 8.1427 3.55903 9.32887 4.42586 10.5953C5.00931 11.4693 5.64277 12.2453 6.32624 12.9231C7.0097 13.6009 7.71817 14.1672 8.45165 14.6221C9.18513 15.0769 9.93527 15.4203 10.7021 15.6522C11.4689 15.8841 12.2274 16 12.9775 16C13.861 16 14.4153 15.8974 14.6404 15.6923C14.8654 15.4872 14.9779 15.2062 14.9779 14.8495C14.9779 13.1728 14.9863 12.1472 15.0029 11.7726C15.0196 11.398 15.253 11.2107 15.7031 11.2107C15.9031 11.2107 16.2115 11.3133 16.6282 11.5184C17.045 11.7235 17.6618 12.2542 18.4786 13.1104C19.4455 14.1093 20.1039 14.8406 20.454 15.3043C20.8041 15.7681 21.2458 16 21.7793 16H24.5798C24.9799 16 25.2674 15.893 25.4425 15.6789C25.6175 15.4649 25.6467 15.1527 25.53 14.7425C25.3966 14.3144 25.1049 13.7882 24.6548 13.1639C24.2214 12.5574 23.7546 11.9688 23.2545 11.398C22.7544 10.8272 22.3044 10.3278 21.9043 9.89967C21.5042 9.47157 21.2875 9.23077 21.2542 9.17726Z" fill="currentColor"/>
</symbol><symbol viewBox="0 0 24 24" fill="none" id="icon-wh" xmlns="http://www.w3.org/2000/svg">
  <path fill-rule="evenodd" clip-rule="evenodd" d="M12.2133 0C18.7125 0.000107398 23.9999 5.2483 24 11.6992C24 18.1496 18.7126 23.3977 12.2133 23.3977C10.264 23.3977 8.3378 22.9168 6.63363 22.0063L0.406286 23.9852C0.375274 23.9951 0.343312 24 0.311755 24C0.229391 24 0.148553 23.967 0.0890983 23.9062C0.00694335 23.8224 -0.0212029 23.6995 0.0164421 23.5883L2.04144 17.6156C0.983699 15.8281 0.425036 13.7857 0.425036 11.6992C0.425165 5.24824 5.71343 0 12.2133 0ZM8.88675 6.21172C8.72211 6.21871 7.82777 6.33666 7.43207 6.58594C7.01246 6.85048 6.30238 7.69433 6.30238 9.17734C6.30254 10.5119 7.14969 11.7723 7.51332 12.2516C7.52241 12.2638 7.53867 12.2885 7.56254 12.3234C8.95519 14.3572 10.6917 15.8641 12.4516 16.5672C14.146 17.244 14.9486 17.3227 15.4047 17.3227L15.6664 17.3133C15.7455 17.3079 15.8176 17.3004 15.8852 17.2938L15.9711 17.2859C16.5564 17.234 17.8424 16.5676 18.1352 15.7547C18.3657 15.1143 18.4268 14.4141 18.2735 14.1602C18.1684 13.9875 17.987 13.9007 17.7578 13.7906C17.7066 13.766 15.9613 12.9063 15.6508 12.7945C15.5239 12.7489 15.3876 12.7047 15.243 12.7047C15.0068 12.7048 14.8085 12.8227 14.6539 13.0539C14.4791 13.3137 13.9505 13.9314 13.7868 14.1164C13.7655 14.1407 13.7363 14.1701 13.7188 14.1703C13.7031 14.1703 13.432 14.059 13.35 14.0234C11.4731 13.2081 10.0485 11.247 9.85316 10.9164C9.82704 10.8719 9.82467 10.8501 9.82425 10.8477C9.83111 10.8225 9.89401 10.7592 9.9266 10.7266C10.0219 10.6323 10.1251 10.5077 10.225 10.3875C10.2723 10.3306 10.3199 10.2733 10.3664 10.2195C10.5111 10.0511 10.5753 9.92019 10.65 9.76875L10.6899 9.68984C10.8724 9.32701 10.7161 9.02075 10.6657 8.92188C10.624 8.83844 9.8856 7.05604 9.80707 6.86875C9.6182 6.41677 9.36871 6.20627 9.02191 6.20625C8.98973 6.20625 9.02171 6.20603 8.88675 6.21172Z" fill="currentColor"/>
</symbol></svg>